HIERARCHY
ROOT Hips
{
	OFFSET -3.958830 18.904000 13.208200
	CHANNELS 6 Xposition Yposition Zposition Zrotation Yrotation Xrotation 
	JOINT LHipJoint
	{
		OFFSET 0.000000 0.000000 0.000000
		CHANNELS 3 Zrotation Yrotation Xrotation
		JOINT LeftUpLeg
		{
			OFFSET 1.800000 -1.400000 0.085000
			CHANNELS 3 Zrotation Yrotation Xrotation
			JOINT LeftLeg
			{
				OFFSET 2.215000 -6.000000 0.000000
				CHANNELS 3 Zrotation Yrotation Xrotation
				JOINT LeftFoot
				{
					OFFSET 2.500000 -6.900000 0.000000
					CHANNELS 3 Zrotation Yrotation Xrotation
					JOINT LeftToeBase
					{
						OFFSET 0.200000 -0.500000 1.950000
						CHANNELS 3 Zrotation Yrotation Xrotation
						End Site
						{
							OFFSET 0.000000 0.000000 0.000000
						}
					}
				}
			}
		}
	}
	JOINT RHipJoint
	{
		OFFSET 0.000000 0.000000 0.000000
		CHANNELS 3 Zrotation Yrotation Xrotation
		JOINT RightUpLeg
		{
			OFFSET -1.800000 -1.400000 0.085000
			CHANNELS 3 Zrotation Yrotation Xrotation
			JOINT RightLeg
			{
				OFFSET -2.215000 -6.000000 0.000000
				CHANNELS 3 Zrotation Yrotation Xrotation
				JOINT RightFoot
				{
					OFFSET -2.500000 -6.900000 0.000000
					CHANNELS 3 Zrotation Yrotation Xrotation
					JOINT RightToeBase
					{
						OFFSET -0.200000 -0.500000 1.950000
						CHANNELS 3 Zrotation Yrotation Xrotation
						End Site
						{
							OFFSET 0.000000 0.000000 0.000000
						}
					}
				}
			}
		}
	}
	JOINT LowerBack
	{
		OFFSET 0.000000 0.000000 0.000000
		CHANNELS 3 Zrotation Yrotation Xrotation
		JOINT Spine
		{
			OFFSET -0.087000 1.940000 -0.288900
			CHANNELS 3 Zrotation Yrotation Xrotation
			JOINT Spine1
			{
				OFFSET 0.000000 1.950000 0.060000
				CHANNELS 3 Zrotation Yrotation Xrotation
				JOINT Neck
				{
					OFFSET 0.000000 0.000000 0.000000
					CHANNELS 3 Zrotation Yrotation Xrotation
					JOINT Neck1
					{
						OFFSET 0.000000 1.600000 0.340000
						CHANNELS 3 Zrotation Yrotation Xrotation
						JOINT Head
						{
							OFFSET 0.000000 1.667000 -0.240000
							CHANNELS 3 Zrotation Yrotation Xrotation
							End Site
							{
								OFFSET 0.000000 0.000000 0.000000
							}
						}
					}
				}
				JOINT LeftShoulder
				{
					OFFSET 0.000000 0.000000 0.000000
					CHANNELS 3 Zrotation Yrotation Xrotation
					JOINT LeftArm
					{
						OFFSET 2.700000 1.550000 -0.730000
						CHANNELS 3 Zrotation Yrotation Xrotation
						JOINT LeftForeArm
						{
							OFFSET 5.450000 0.000000 0.000000
							CHANNELS 3 Zrotation Yrotation Xrotation
							JOINT LeftHand
							{
								OFFSET 3.450000 0.000000 0.000000
								CHANNELS 3 Zrotation Yrotation Xrotation
								JOINT LeftHandIndex1
								{
									OFFSET 0.750000 0.000000 0.000000
									CHANNELS 3 Zrotation Yrotation Xrotation
									End Site
									{
										OFFSET 0.000000 0.000000 0.000000
									}
								}
							}
						}
					}
				}
				JOINT RightShoulder
				{
					OFFSET 0.000000 0.000000 0.000000
					CHANNELS 3 Zrotation Yrotation Xrotation
					JOINT RightArm
					{
						OFFSET -2.700000 1.550000 -0.730000
						CHANNELS 3 Zrotation Yrotation Xrotation
						JOINT RightForeArm
						{
							OFFSET -5.450000 0.000000 0.000000
							CHANNELS 3 Zrotation Yrotation Xrotation
							JOINT RightHand
							{
								OFFSET -3.450000 0.000000 0.000000
								CHANNELS 3 Zrotation Yrotation Xrotation
								JOINT RightHandIndex1
								{
									OFFSET -0.750000 0.000000 0.000000
									CHANNELS 3 Zrotation Yrotation Xrotation
									End Site
									{
										OFFSET 0.000000 0.000000 0.000000
									}
								}
							}
						}
					}
				}
			}
		}
	}
}
MOTION
Frames: 6
Frame Time: 0.016667
1.941920 16.514640 -3.254900 -0.737211 2.940471 -0.663257 -14.953374 12.880742 3.144862 0.443677 -1.130188 -8.691942 -5.709562 3.685241 2.004946 -1.120085 4.449793 3.494969 0.172330 -0.019130 -0.099340 18.484457 -11.180983 2.757162 -1.313998 1.929177 -14.543261 4.074805 -4.013242 14.488556 0.276318 -3.962114 2.996107 0.594230 1.344380 0.387650 -4.251095 -0.520070 -7.400515 15.524837 -5.834227 16.079378 -10.339967 0.131505 4.819737 1.869491 -1.901116 -7.355604 -2.385924 4.439524 17.797515 -4.309020 0.424530 0.258590 9.415235 -6.749967 -1.173389 30.194614 -16.155645 -10.301767 94.681415 30.269694 24.534826 -5.351539 3.443710 -0.242340 1.071970 -0.828210 0.268270 -13.319967 9.045634 3.422184 -23.714838 8.377363 -12.916484 -109.665207 -30.967659 34.809029 2.309661 -2.546876 -0.611970 0.592790 0.379120 -0.006040 
1.952130 16.507220 -3.322220 -1.181688 2.591809 -0.958847 -14.934089 12.756039 3.110490 0.109805 -1.070511 -8.083979 -5.028018 3.559041 1.280834 -1.288846 4.696419 3.476125 0.062210 -0.184000 -0.192330 18.533663 -11.169811 2.852739 -0.238064 1.669888 -12.667700 3.303475 -3.554355 10.985019 0.372491 -4.038430 2.974868 0.631190 1.575900 0.410260 -4.336367 -0.287274 -7.415155 16.348162 -6.579323 16.421100 -10.898020 0.108231 5.543566 1.364930 -1.758167 -8.034011 -2.016288 5.560331 15.912729 -4.104950 0.510640 1.807940 11.738505 -7.800528 -0.868901 28.539481 -14.565099 -10.309245 92.382245 31.049618 23.028059 -5.659129 3.473926 -0.314780 1.242680 -1.016450 0.249850 -14.535087 10.162388 4.234305 -21.890340 7.254963 -13.683105 -112.567236 -30.728436 34.850474 2.229765 -2.640961 -0.761850 0.684640 0.524360 -0.020850 
1.956450 16.513320 -3.408570 -1.024576 1.735821 -2.652734 -14.932621 12.728142 3.080553 -0.236217 -0.758281 -6.296963 -4.463880 3.661282 1.560026 -1.330238 4.908981 3.434051 -0.043990 -0.264960 -0.309640 18.540753 -11.220134 2.909602 -0.154937 1.310372 -10.501627 3.181769 -3.497364 9.464885 0.423333 -4.257244 2.906381 0.665230 1.721880 0.387120 -4.329220 -0.129343 -7.434597 15.829428 -6.213498 18.489907 -10.546342 0.708199 7.454448 1.031208 -1.462757 -9.060759 -1.379738 5.641372 14.920790 -3.892400 0.111350 2.702480 13.712683 -9.522345 -0.485714 27.850162 -13.072662 -10.943855 86.992094 31.402419 19.689839 -5.902450 3.472185 -0.411750 1.347700 -1.142330 0.226590 -15.648385 12.247578 5.540530 -20.750287 4.089293 -14.779221 -109.974885 -29.909873 30.096297 2.247673 -2.690979 -0.844980 0.756210 0.626520 0.003980 
1.963270 16.521240 -3.468430 -0.472636 3.482476 -2.039772 -14.970890 12.880140 3.018876 -0.122633 -1.021836 -8.019249 -4.887778 3.903246 4.094942 -1.219024 4.706895 3.473721 -0.033000 -0.327390 -0.251500 18.481781 -11.142798 2.874260 -1.868727 1.275707 -11.438742 4.882325 -3.802918 9.065778 0.347866 -4.099773 2.972894 0.506810 1.544090 0.386240 -4.224982 -0.549135 -7.389129 14.944970 -5.185857 17.375270 -9.228388 0.683459 8.575796 0.747511 -1.622125 -9.916827 -1.691762 3.415682 16.217028 -3.884830 -1.109950 2.580180 10.178733 -13.154169 1.228317 32.671114 -9.029915 -11.047638 74.348451 28.529830 13.518768 -5.665979 3.355202 -0.260930 1.172340 -1.003990 0.231540 -11.572676 15.186809 5.884392 -23.951531 -0.448323 -14.395369 -100.515280 -25.781851 21.880820 2.291443 -2.583399 -0.763690 0.656660 0.557570 -0.018980 
1.963570 16.539850 -3.521100 -0.120551 4.083158 -1.643833 -14.972957 12.976196 2.907080 -0.402481 -1.420141 -10.294493 -4.287976 4.138615 8.540662 -1.121754 4.377739 3.518618 0.180710 -0.021930 -0.097170 18.460722 -11.185771 2.870274 -2.566294 1.224920 -12.253604 5.293731 -3.792325 9.201173 0.261347 -3.995276 3.011161 0.589240 1.325570 0.361000 -4.209868 -0.622287 -7.284630 14.263964 -3.979886 16.513825 -8.297464 0.633970 9.422355 0.746838 -1.500446 -9.472842 -1.488639 2.413877 16.492233 -4.533760 -1.044440 1.488790 8.963487 -13.158501 1.058366 34.880955 -11.094787 -10.988687 63.632209 24.863140 8.421729 -5.435042 3.350841 -0.277680 1.055770 -0.853000 0.287900 -10.350247 14.845552 5.396930 -24.641045 -0.089026 -13.352446 -90.626112 -20.353300 13.044107 2.296610 -2.649629 -0.602570 0.562430 0.340150 0.001070 
1.968580 16.562890 -3.578270 0.288230 3.853207 -2.117549 -14.950791 13.022543 2.838618 -1.048150 -2.007328 -12.262024 -3.130350 4.418513 14.494934 -1.047718 4.343148 3.435189 0.370710 0.239440 0.030550 18.464920 -11.292490 2.853146 -3.149003 1.066965 -12.555571 5.158298 -3.807011 9.655383 0.179035 -3.952772 2.993172 0.678570 1.154300 0.369060 -4.251550 -0.529677 -7.195523 13.749247 -3.277852 16.667442 -8.092355 0.574626 10.287411 0.765554 -1.403979 -8.679770 -1.352667 1.973201 16.946840 -4.723010 -1.023780 0.095140 9.147166 -11.984855 0.310953 35.243913 -14.568972 -10.648284 54.670165 19.360316 3.758163 -5.253290 3.386848 -0.283380 0.963540 -0.724280 0.324610 -10.588758 13.550841 4.743678 -24.802266 3.080062 -12.401015 -79.255984 -14.957543 5.707351 2.288294 -2.681087 -0.467700 0.487030 0.191770 0.018090 
